<?xml version="1.0" encoding="utf-8"?>
<!-- Generator: Adobe Illustrator 17.0.0, SVG Export Plug-In . SVG Version: 6.00 Build 0)  -->
<!DOCTYPE svg PUBLIC "-//W3C//DTD SVG 1.1//EN" "http://www.w3.org/Graphics/SVG/1.1/DTD/svg11.dtd">
<svg version="1.1" id="Layer_1" xmlns="http://www.w3.org/2000/svg" xmlns:xlink="http://www.w3.org/1999/xlink" x="0px" y="0px"
	 width="600px" height="103px" viewBox="0 0 600 103" enable-background="new 0 0 600 103" xml:space="preserve">
<g>
	<path d="M4.476,27.279h11.719l8.188,22.01l2.93,8.564h0.3l2.93-8.564l7.962-22.01h11.719v48.98H39.858V58.303
		c0-4.808,0.901-11.943,1.426-16.676h-0.299l-3.982,11.344l-7.587,19.005h-4.432l-7.512-19.005l-3.906-11.344h-0.3
		c0.526,4.733,1.428,11.868,1.428,16.676v17.956H4.476V27.279z"/>
	<path d="M61.64,27.279h11.118v48.98H61.64V27.279z"/>
	<path d="M105.209,26.377c6.084,0,11.193,3.005,14.498,6.385l-6.084,6.836c-2.479-2.253-4.808-3.681-8.263-3.681
		c-6.836,0-12.17,5.933-12.17,15.775c0,10.067,4.733,15.927,11.868,15.927c4.057,0,6.913-1.73,9.316-4.356l6.084,6.684
		c-4.057,4.734-9.466,7.212-15.55,7.212c-12.695,0-23.062-8.639-23.062-25.091C81.846,35.842,92.588,26.377,105.209,26.377z"/>
	<path d="M127.742,27.279h11.118v18.856h16.902V27.279h11.043v48.98h-11.043V55.825H138.86v20.434h-11.118V27.279z"/>
	<path d="M201.285,64.615H186.26l-3.005,11.644h-11.269l15.401-48.98h13.221l15.399,48.98h-11.719L201.285,64.615z M199.03,55.976
		l-1.202-4.509c-1.351-4.883-2.628-10.666-3.981-15.775h-0.3c-1.127,5.183-2.479,10.892-3.832,15.775l-1.202,4.509H199.03z"/>
	<path d="M221.115,27.279h30.724v9.315h-19.606v9.841h16.676v9.239h-16.676v11.269h20.358v9.316h-31.476V27.279z"/>
	<path d="M262.129,27.279h11.118v39.664h19.306v9.316h-30.424V27.279z"/>
	<path d="M347.238,26.978h6.312v24.714h0.15l20.509-24.714h7.135l-15.476,18.781l17.803,30.5h-6.986l-14.722-25.617l-8.414,9.991
		v15.627h-6.312V26.978z"/>
	<path d="M385.852,51.392c0-15.775,8.713-25.315,21.107-25.315c12.321,0,21.034,9.615,21.034,25.315
		c0,15.852-8.713,25.767-21.034,25.767C394.565,77.159,385.852,67.245,385.852,51.392z M421.535,51.392
		c0-12.244-5.787-19.832-14.576-19.832c-8.865,0-14.649,7.588-14.649,19.832c0,12.32,5.784,20.285,14.649,20.285
		C415.748,71.677,421.535,63.712,421.535,51.392z"/>
	<path d="M438.207,26.978h6.312v20.659h22.91V26.978h6.235v49.281h-6.235V53.046h-22.91v23.213h-6.312V26.978z"/>
	<path d="M486.806,26.978h6.312v43.945h21.485v5.335h-27.797V26.978z"/>
	<path d="M522.938,26.978h28.398v5.258h-22.086v15.476h18.63v5.334h-18.63v17.878h22.837v5.335h-29.148V26.978z"/>
	<path d="M589.191,76.259l-11.867-20.81h-8.865v20.81h-6.312V26.978h15.476c9.991,0,17.202,3.606,17.202,13.822
		c0,7.662-4.356,12.245-11.043,13.973l12.547,21.485H589.191z M568.459,50.341h8.264c7.66,0,11.867-3.156,11.867-9.541
		c0-6.46-4.207-8.789-11.867-8.789h-8.264V50.341z"/>
</g>
<g>
	<rect x="314.647" y="5.439" fill="#231F20" width="5.778" height="92.455"/>
</g>
</svg>
